<?xml version="1.0" encoding="UTF-8"?>
<svg xmlns="http://www.w3.org/2000/svg" xmlns:xlink="http://www.w3.org/1999/xlink" width="160px" height="43px" viewBox="0 0 161 43" version="1.1">
<g id="surface1">
<path style=" stroke:none;fill-rule:nonzero;fill:rgb(21.176471%,25.098041%,32.549021%);fill-opacity:1;" d="M 31.804688 3.871094 C 31.996094 3.871094 32.191406 3.871094 32.390625 3.871094 C 35.597656 3.9375 38.183594 5.113281 40.59375 7.222656 C 40.699219 7.3125 40.804688 7.402344 40.910156 7.496094 C 41.929688 8.425781 42.652344 9.644531 43.332031 10.835938 C 43.332031 10.949219 43.332031 11.0625 43.332031 11.179688 C 43.441406 11.183594 43.550781 11.183594 43.660156 11.1875 C 46.347656 11.332031 49.210938 12.601562 51.039062 14.621094 C 53.523438 17.761719 54.21875 21.167969 53.953125 25.113281 C 53.898438 25.398438 53.84375 25.6875 53.78125 25.972656 C 53.597656 26.023438 53.417969 26.070312 53.230469 26.125 C 51.855469 26.519531 50.753906 26.894531 49.671875 27.863281 C 49.558594 27.921875 49.445312 27.976562 49.328125 28.035156 C 49.4375 27.53125 49.601562 27.109375 49.832031 26.648438 C 50.847656 24.351562 50.671875 21.765625 49.882812 19.421875 C 49.613281 18.785156 49.273438 18.238281 48.859375 17.683594 C 48.640625 17.371094 48.640625 17.371094 48.472656 16.855469 C 48.15625 16.671875 48.15625 16.671875 47.785156 16.511719 C 47.550781 16.347656 47.320312 16.183594 47.089844 16.015625 C 45.253906 14.792969 43.113281 14.449219 40.933594 14.449219 C 40.867188 14.238281 40.867188 14.238281 40.796875 14.023438 C 39.925781 11.554688 38.5 9.617188 36.171875 8.375 C 33.871094 7.304688 31.40625 7.011719 28.941406 7.722656 C 26.285156 8.714844 24.433594 10.34375 23.214844 12.910156 C 23.058594 13.304688 22.910156 13.699219 22.78125 14.105469 C 22.605469 14.109375 22.433594 14.113281 22.253906 14.117188 C 19.867188 14.203125 17.910156 14.660156 16.101562 16.339844 C 15.75 16.773438 15.441406 17.210938 15.148438 17.683594 C 14.730469 18.324219 14.730469 18.324219 14.386719 18.574219 C 14.058594 18.539062 14.058594 18.539062 13.691406 18.414062 C 12.175781 18.023438 10.890625 18.601562 9.550781 19.316406 C 8.171875 20.164062 7.421875 21.320312 6.980469 22.867188 C 6.59375 24.664062 6.9375 26.480469 7.816406 28.089844 C 8.804688 29.617188 10.402344 30.574219 12.160156 30.960938 C 12.648438 30.976562 13.132812 30.988281 13.621094 30.988281 C 13.769531 30.988281 13.917969 30.988281 14.074219 30.988281 C 14.574219 30.992188 15.070312 30.992188 15.570312 30.996094 C 15.929688 30.996094 16.289062 31 16.644531 31 C 17.617188 31.003906 18.589844 31.007812 19.5625 31.011719 C 20.578125 31.015625 21.59375 31.019531 22.609375 31.023438 C 24.535156 31.035156 26.457031 31.042969 28.382812 31.050781 C 30.574219 31.058594 32.761719 31.066406 34.953125 31.078125 C 39.460938 31.097656 43.964844 31.113281 48.472656 31.132812 C 48.550781 30.890625 48.550781 30.890625 48.628906 30.640625 C 49.09375 29.277344 49.964844 28.226562 51.210938 27.519531 C 52.238281 27.042969 53.160156 26.730469 54.292969 26.832031 C 54.292969 27.457031 54.292969 28.082031 54.292969 28.722656 C 55.992188 28.722656 57.6875 28.722656 59.433594 28.722656 C 59.433594 29.632812 59.433594 30.539062 59.433594 31.476562 C 57.738281 31.476562 56.042969 31.476562 54.292969 31.476562 C 54.292969 32.382812 54.292969 33.292969 54.292969 34.226562 C 55.992188 34.226562 57.6875 34.226562 59.433594 34.226562 C 59.433594 35.136719 59.433594 36.042969 59.433594 36.980469 C 57.738281 36.980469 56.042969 36.980469 54.292969 36.980469 C 54.292969 37.605469 54.292969 38.230469 54.292969 38.871094 C 52.605469 38.980469 51.433594 38.570312 50.128906 37.472656 C 49.347656 36.726562 48.835938 35.9375 48.472656 34.914062 C 48.472656 34.800781 48.472656 34.6875 48.472656 34.570312 C 48.316406 34.574219 48.160156 34.574219 48 34.574219 C 43.226562 34.585938 38.453125 34.582031 33.679688 34.574219 C 32.785156 34.574219 31.890625 34.570312 30.996094 34.570312 C 28.371094 34.566406 25.742188 34.5625 23.117188 34.550781 C 21.9375 34.542969 20.761719 34.539062 19.585938 34.539062 C 18.464844 34.539062 17.347656 34.53125 16.226562 34.523438 C 15.8125 34.523438 15.402344 34.523438 14.988281 34.523438 C 11.449219 34.527344 8.8125 34.09375 6.109375 31.625 C 4.050781 29.46875 3.332031 26.839844 3.355469 23.925781 C 3.4375 21.179688 4.542969 18.976562 6.507812 17.089844 C 8.210938 15.742188 10.335938 14.910156 12.492188 14.738281 C 13.101562 14.601562 13.238281 14.402344 13.597656 13.910156 C 15.050781 12.214844 17.082031 11.308594 19.238281 10.988281 C 19.921875 10.855469 20.273438 10.78125 20.75 10.265625 C 20.949219 9.941406 21.136719 9.609375 21.316406 9.273438 C 22.636719 6.789062 25.429688 5.144531 28.035156 4.328125 C 29.300781 3.976562 30.496094 3.863281 31.804688 3.871094 Z M 31.804688 3.871094 "/>
<path style=" stroke:none;fill-rule:nonzero;fill:rgb(21.176471%,25.098041%,32.549021%);fill-opacity:1;" d="M 114.863281 16.492188 C 116.109375 17.613281 116.609375 19.195312 116.8125 20.8125 C 116.828125 21.183594 116.835938 21.554688 116.839844 21.921875 C 116.839844 22.136719 116.839844 22.351562 116.84375 22.570312 C 116.84375 22.800781 116.84375 23.027344 116.84375 23.257812 C 116.847656 23.433594 116.847656 23.433594 116.847656 23.613281 C 116.847656 24.238281 116.851562 24.859375 116.851562 25.484375 C 116.851562 26.121094 116.855469 26.757812 116.863281 27.394531 C 116.863281 27.886719 116.867188 28.382812 116.867188 28.878906 C 116.867188 29.226562 116.871094 29.574219 116.875 29.917969 C 116.867188 32.03125 116.664062 34.113281 115.179688 35.714844 C 113.25 37.519531 110.695312 37.980469 108.148438 37.898438 C 106.3125 37.789062 104.746094 37.175781 103.507812 35.800781 C 102.734375 34.835938 102.082031 33.765625 102.082031 32.507812 C 102.792969 32.472656 103.507812 32.453125 104.222656 32.433594 C 104.523438 32.417969 104.523438 32.417969 104.832031 32.402344 C 105.867188 32.382812 106.539062 32.390625 107.332031 33.105469 C 107.433594 33.214844 107.53125 33.320312 107.636719 33.433594 C 108.09375 33.910156 108.605469 33.917969 109.230469 33.9375 C 110.140625 33.925781 110.605469 33.75 111.328125 33.195312 C 112.1875 32.148438 112.410156 31.09375 112.359375 29.757812 C 112.285156 29.824219 112.210938 29.894531 112.136719 29.964844 C 110.9375 31.054688 109.746094 31.535156 108.105469 31.5 C 106.296875 31.378906 104.785156 30.566406 103.554688 29.234375 C 101.574219 26.785156 101.550781 24.011719 101.738281 20.984375 C 101.96875 19.195312 102.71875 17.179688 104.136719 15.996094 C 107.476562 13.894531 111.671875 14.203125 114.863281 16.492188 Z M 107.046875 19.09375 C 105.882812 20.695312 105.746094 22.617188 105.929688 24.53125 C 106.09375 25.585938 106.375 26.472656 107.101562 27.261719 C 108.164062 27.859375 109.132812 27.988281 110.300781 27.691406 C 111.324219 27.148438 111.929688 26.484375 112.316406 25.390625 C 112.804688 23.570312 112.738281 21.628906 111.84375 19.953125 C 111.375 19.253906 110.921875 18.71875 110.128906 18.402344 C 109.019531 18.242188 107.921875 18.335938 107.046875 19.09375 Z M 107.046875 19.09375 "/>
<path style=" stroke:none;fill-rule:nonzero;fill:rgb(21.176471%,25.098041%,32.549021%);fill-opacity:1;" d="M 61.660156 10.320312 C 62.125 10.300781 62.585938 10.289062 63.050781 10.277344 C 63.179688 10.269531 63.3125 10.265625 63.445312 10.257812 C 64.363281 10.242188 64.867188 10.398438 65.597656 11.007812 C 66.011719 11.574219 65.992188 12.128906 66.011719 12.816406 C 66.019531 13.03125 66.027344 13.246094 66.03125 13.46875 C 66.039062 13.691406 66.042969 13.917969 66.046875 14.148438 C 66.054688 14.375 66.0625 14.601562 66.070312 14.832031 C 66.085938 15.394531 66.097656 15.953125 66.113281 16.511719 C 66.25 16.386719 66.25 16.386719 66.390625 16.261719 C 66.574219 16.097656 66.574219 16.097656 66.757812 15.929688 C 66.878906 15.820312 67 15.714844 67.121094 15.601562 C 68.304688 14.636719 69.777344 14.503906 71.25 14.621094 C 72.941406 14.925781 74.203125 15.703125 75.242188 17.070312 C 75.828125 17.933594 76.257812 18.78125 76.5625 19.78125 C 76.597656 19.902344 76.636719 20.027344 76.675781 20.15625 C 77.351562 22.828125 77.082031 26.089844 75.714844 28.5 C 74.550781 30.246094 73.082031 31 71.074219 31.417969 C 68.722656 31.832031 66.140625 31.261719 64.105469 30.035156 C 62.882812 29.15625 62.183594 27.949219 61.898438 26.472656 C 61.644531 24.671875 61.613281 22.902344 61.625 21.085938 C 61.625 20.773438 61.628906 20.460938 61.628906 20.148438 C 61.628906 19.335938 61.632812 18.523438 61.636719 17.707031 C 61.640625 16.875 61.640625 16.042969 61.644531 15.207031 C 61.648438 13.578125 61.652344 11.949219 61.660156 10.320312 Z M 66.914062 19.4375 C 65.902344 20.757812 65.792969 22.472656 65.941406 24.078125 C 66.132812 25.378906 66.414062 26.515625 67.484375 27.347656 C 68.289062 27.839844 69.082031 27.964844 70.011719 27.8125 C 70.871094 27.542969 71.523438 27.054688 71.996094 26.285156 C 72.820312 24.523438 72.921875 22.34375 72.285156 20.507812 C 71.886719 19.648438 71.339844 19 70.480469 18.585938 C 69.152344 18.183594 67.894531 18.417969 66.914062 19.4375 Z M 66.914062 19.4375 "/>
<path style=" stroke:none;fill-rule:nonzero;fill:rgb(21.176471%,25.098041%,32.549021%);fill-opacity:1;" d="M 95.742188 10.320312 C 98.65625 10.320312 98.65625 10.320312 99.683594 11.179688 C 100.078125 11.867188 100.070312 12.503906 100.070312 13.289062 C 100.070312 13.410156 100.070312 13.535156 100.070312 13.660156 C 100.074219 14.066406 100.070312 14.46875 100.070312 14.875 C 100.070312 15.15625 100.070312 15.4375 100.070312 15.722656 C 100.074219 16.316406 100.070312 16.910156 100.070312 17.503906 C 100.066406 18.257812 100.070312 19.015625 100.070312 19.769531 C 100.074219 20.355469 100.070312 20.9375 100.070312 21.523438 C 100.070312 21.800781 100.070312 22.082031 100.070312 22.359375 C 100.082031 27.550781 100.082031 27.550781 98.324219 29.464844 C 96.273438 31.148438 93.535156 31.6875 90.949219 31.476562 C 88.960938 31.1875 87.589844 30.558594 86.292969 29.003906 C 84.703125 26.703125 84.558594 23.5 84.953125 20.8125 C 85.425781 18.457031 86.410156 16.71875 88.378906 15.308594 C 90.046875 14.5 91.683594 14.367188 93.449219 14.953125 C 94.273438 15.320312 94.941406 15.878906 95.574219 16.511719 C 95.628906 14.46875 95.683594 12.425781 95.742188 10.320312 Z M 90.039062 19.488281 C 89.042969 21.078125 88.84375 22.761719 89.148438 24.59375 C 89.441406 25.796875 89.855469 26.691406 90.820312 27.5 C 91.722656 27.871094 92.605469 27.984375 93.550781 27.691406 C 94.488281 27.269531 95.035156 26.644531 95.40625 25.683594 C 95.917969 23.871094 96.039062 21.867188 95.230469 20.125 C 94.710938 19.265625 94.125 18.769531 93.164062 18.480469 C 91.917969 18.195312 90.925781 18.597656 90.039062 19.488281 Z M 90.039062 19.488281 "/>
<path style=" stroke:none;fill-rule:nonzero;fill:rgb(21.176471%,25.098041%,32.549021%);fill-opacity:1;" d="M 130.613281 15.992188 C 132.214844 17.339844 132.980469 19.117188 133.253906 21.15625 C 133.253906 22.175781 133.253906 23.199219 133.253906 24.253906 C 129.863281 24.253906 126.46875 24.253906 122.976562 24.253906 C 123.261719 25.972656 123.261719 25.972656 124.175781 27.175781 C 125.1875 27.691406 126.160156 27.828125 127.257812 27.519531 C 127.808594 27.21875 128.191406 26.945312 128.597656 26.46875 C 129.074219 26.054688 129.316406 26.0625 129.9375 26.078125 C 130.121094 26.078125 130.304688 26.082031 130.492188 26.082031 C 130.683594 26.089844 130.875 26.09375 131.070312 26.101562 C 131.261719 26.105469 131.457031 26.105469 131.652344 26.109375 C 132.128906 26.117188 132.605469 26.128906 133.082031 26.144531 C 132.484375 28.070312 131.589844 29.621094 129.800781 30.660156 C 127.703125 31.671875 125.324219 31.753906 123.101562 31.128906 C 122.414062 30.878906 121.84375 30.542969 121.265625 30.101562 C 121.121094 29.996094 120.980469 29.890625 120.835938 29.785156 C 119.4375 28.570312 118.753906 26.738281 118.523438 24.941406 C 118.363281 21.851562 118.46875 19.171875 120.417969 16.652344 C 122.914062 13.917969 127.742188 13.976562 130.613281 15.992188 Z M 123.4375 19.480469 C 123.039062 20.058594 123.039062 20.058594 122.976562 21.328125 C 124.898438 21.328125 126.820312 21.328125 128.800781 21.328125 C 128.589844 20.015625 128.589844 20.015625 127.953125 19.09375 C 127.867188 18.996094 127.78125 18.902344 127.691406 18.800781 C 127.042969 18.242188 126.175781 18.347656 125.367188 18.355469 C 124.480469 18.441406 124.050781 18.878906 123.4375 19.480469 Z M 123.4375 19.480469 "/>
<path style=" stroke:none;fill-rule:nonzero;fill:rgb(21.176471%,25.098041%,32.549021%);fill-opacity:1;" d="M 141.988281 14.964844 C 143.515625 14.964844 145.039062 14.964844 146.613281 14.964844 C 147.191406 16.511719 147.191406 16.511719 147.417969 17.316406 C 147.46875 17.492188 147.519531 17.671875 147.570312 17.855469 C 147.652344 18.136719 147.652344 18.136719 147.734375 18.425781 C 147.816406 18.71875 147.816406 18.71875 147.902344 19.019531 C 148.078125 19.640625 148.257812 20.265625 148.433594 20.886719 C 148.667969 21.710938 148.898438 22.535156 149.136719 23.359375 C 149.1875 23.550781 149.242188 23.738281 149.296875 23.9375 C 149.347656 24.109375 149.398438 24.285156 149.449219 24.464844 C 149.492188 24.621094 149.535156 24.773438 149.582031 24.933594 C 149.664062 25.277344 149.664062 25.277344 149.867188 25.457031 C 149.898438 25.339844 149.933594 25.222656 149.964844 25.101562 C 150.273438 24 150.582031 22.898438 150.894531 21.800781 C 151.054688 21.234375 151.214844 20.667969 151.371094 20.101562 C 151.554688 19.449219 151.738281 18.800781 151.925781 18.148438 C 151.980469 17.945312 152.035156 17.746094 152.09375 17.535156 C 152.605469 15.765625 152.605469 15.765625 153.464844 15.136719 C 153.957031 14.972656 154.265625 14.945312 154.777344 14.945312 C 154.929688 14.949219 155.082031 14.949219 155.242188 14.949219 C 155.480469 14.949219 155.480469 14.949219 155.722656 14.953125 C 155.882812 14.953125 156.042969 14.953125 156.210938 14.957031 C 156.609375 14.957031 157.003906 14.960938 157.402344 14.964844 C 157.296875 15.898438 157.074219 16.734375 156.777344 17.625 C 156.730469 17.765625 156.683594 17.910156 156.632812 18.054688 C 156.480469 18.515625 156.324219 18.980469 156.171875 19.445312 C 156.0625 19.769531 155.953125 20.097656 155.847656 20.421875 C 155.617188 21.105469 155.390625 21.789062 155.164062 22.472656 C 154.875 23.339844 154.585938 24.207031 154.296875 25.074219 C 154.074219 25.746094 153.847656 26.421875 153.625 27.09375 C 153.519531 27.414062 153.414062 27.734375 153.304688 28.050781 C 152.765625 29.683594 152.210938 31.308594 151.628906 32.921875 C 151.582031 33.058594 151.535156 33.191406 151.484375 33.328125 C 151.035156 34.5625 150.476562 35.664062 149.40625 36.464844 C 147.695312 36.984375 145.96875 37.160156 144.214844 36.808594 C 144.214844 35.671875 144.214844 34.539062 144.214844 33.367188 C 144.8125 33.304688 145.40625 33.246094 146.003906 33.183594 C 146.746094 32.988281 147.039062 32.800781 147.46875 32.164062 C 147.417969 31.066406 147.101562 30.117188 146.726562 29.089844 C 146.671875 28.925781 146.613281 28.765625 146.554688 28.597656 C 146.429688 28.246094 146.304688 27.898438 146.175781 27.546875 C 145.980469 27 145.785156 26.449219 145.585938 25.898438 C 145.320312 25.148438 145.050781 24.394531 144.78125 23.644531 C 144.238281 22.121094 143.699219 20.59375 143.164062 19.070312 C 143.007812 18.625 142.851562 18.183594 142.691406 17.738281 C 142.597656 17.472656 142.503906 17.203125 142.410156 16.933594 C 142.367188 16.8125 142.324219 16.691406 142.28125 16.566406 C 142.078125 15.992188 141.988281 15.582031 141.988281 14.964844 Z M 141.988281 14.964844 "/>
<path style=" stroke:none;fill-rule:nonzero;fill:rgb(28.627452%,61.960787%,84.313726%);fill-opacity:1;" d="M 32.371094 10.148438 C 34.066406 10.148438 35.761719 10.148438 37.507812 10.148438 C 37.507812 16.789062 37.507812 23.429688 37.507812 30.273438 C 35.8125 30.273438 34.117188 30.273438 32.371094 30.273438 C 32.371094 23.632812 32.371094 16.988281 32.371094 10.148438 Z M 32.371094 10.148438 "/>
<path style=" stroke:none;fill-rule:nonzero;fill:rgb(28.627452%,61.960787%,84.313726%);fill-opacity:1;" d="M 25.863281 11.179688 C 27.558594 11.179688 29.253906 11.179688 31 11.179688 C 31 17.480469 31 23.78125 31 30.273438 C 29.304688 30.273438 27.609375 30.273438 25.863281 30.273438 C 25.863281 23.972656 25.863281 17.671875 25.863281 11.179688 Z M 25.863281 11.179688 "/>
<path style=" stroke:none;fill-rule:nonzero;fill:rgb(21.176471%,25.098041%,32.549021%);fill-opacity:1;" d="M 135.480469 10.320312 C 138.390625 10.320312 138.390625 10.320312 139.417969 11.007812 C 139.785156 11.558594 139.804688 11.695312 139.804688 12.332031 C 139.804688 12.496094 139.804688 12.660156 139.804688 12.832031 C 139.804688 13.015625 139.800781 13.195312 139.800781 13.382812 C 139.800781 13.574219 139.800781 13.765625 139.800781 13.960938 C 139.800781 14.597656 139.796875 15.230469 139.796875 15.863281 C 139.792969 16.300781 139.792969 16.742188 139.792969 17.179688 C 139.792969 18.21875 139.789062 19.257812 139.785156 20.292969 C 139.78125 21.476562 139.78125 22.65625 139.777344 23.839844 C 139.773438 26.269531 139.769531 28.699219 139.761719 31.132812 C 138.347656 31.132812 136.9375 31.132812 135.480469 31.132812 C 135.480469 24.265625 135.480469 17.394531 135.480469 10.320312 Z M 135.480469 10.320312 "/>
<path style=" stroke:none;fill-rule:nonzero;fill:rgb(28.627452%,61.960787%,84.313726%);fill-opacity:1;" d="M 38.878906 15.652344 C 40.574219 15.652344 42.269531 15.652344 44.019531 15.652344 C 44.019531 20.476562 44.019531 25.300781 44.019531 30.273438 C 42.324219 30.273438 40.625 30.273438 38.878906 30.273438 C 38.878906 25.449219 38.878906 20.621094 38.878906 15.652344 Z M 38.878906 15.652344 "/>
<path style=" stroke:none;fill-rule:nonzero;fill:rgb(21.176471%,25.098041%,32.549021%);fill-opacity:1;" d="M 79.300781 14.964844 C 82.042969 14.964844 82.042969 14.964844 83.070312 15.480469 C 83.832031 16.300781 83.777344 17.171875 83.773438 18.246094 C 83.773438 18.382812 83.773438 18.523438 83.773438 18.667969 C 83.773438 19.125 83.773438 19.585938 83.769531 20.046875 C 83.769531 20.363281 83.769531 20.683594 83.769531 21.003906 C 83.769531 21.84375 83.769531 22.683594 83.765625 23.519531 C 83.765625 24.378906 83.761719 25.234375 83.761719 26.089844 C 83.761719 27.769531 83.757812 29.453125 83.753906 31.132812 C 82.285156 31.132812 80.816406 31.132812 79.300781 31.132812 C 79.300781 25.796875 79.300781 20.460938 79.300781 14.964844 Z M 79.300781 14.964844 "/>
<path style=" stroke:none;fill-rule:nonzero;fill:rgb(28.627452%,61.960787%,84.313726%);fill-opacity:1;" d="M 19.355469 16.339844 C 20.992188 16.339844 22.632812 16.339844 24.320312 16.339844 C 24.320312 20.9375 24.320312 25.535156 24.320312 30.273438 C 22.683594 30.273438 21.042969 30.273438 19.355469 30.273438 C 19.355469 25.675781 19.355469 21.078125 19.355469 16.339844 Z M 19.355469 16.339844 "/>
<path style=" stroke:none;fill-rule:nonzero;fill:rgb(28.627452%,61.960787%,84.313726%);fill-opacity:1;" d="M 12.847656 19.09375 C 14.484375 19.09375 16.125 19.09375 17.8125 19.09375 C 17.8125 22.78125 17.8125 26.472656 17.8125 30.273438 C 16.171875 30.273438 14.535156 30.273438 12.847656 30.273438 C 12.847656 26.582031 12.847656 22.894531 12.847656 19.09375 Z M 12.847656 19.09375 "/>
<path style=" stroke:none;fill-rule:nonzero;fill:rgb(28.627452%,61.960787%,84.313726%);fill-opacity:1;" d="M 79.472656 10.320312 C 79.875 10.308594 80.277344 10.296875 80.691406 10.289062 C 80.816406 10.28125 80.941406 10.277344 81.070312 10.273438 C 81.871094 10.261719 82.390625 10.414062 83.070312 10.835938 C 84.042969 11.839844 83.753906 12.34375 83.753906 13.933594 C 82.339844 13.933594 80.929688 13.933594 79.472656 13.933594 C 79.472656 12.738281 79.472656 11.546875 79.472656 10.320312 Z M 79.472656 10.320312 "/>
</g>
</svg>
